HIERARCHY
ROOT Pelvis
{
	OFFSET 0.000000 0.000000 0.000000
	CHANNELS 6 Xposition Yposition Zposition Xrotation Yrotation Zrotation
	JOINT LeftUpLeg_virtual
	{
		OFFSET 0.000000 0.000000 0.000000
		CHANNELS 3 Xrotation Yrotation Zrotation
		JOINT LeftUpLeg
		{
			OFFSET 18.735201 -5.666702 -4.541200
			CHANNELS 3 Xrotation Yrotation Zrotation
			JOINT LeftLeg
			{
				OFFSET -0.021200 -31.938179 0.493100
				CHANNELS 3 Xrotation Yrotation Zrotation
				JOINT LeftFoot
				{
					OFFSET 0.021200 -31.938179 -4.336299
					CHANNELS 3 Xrotation Yrotation Zrotation
					JOINT LeftToeBase
					{
						OFFSET 0.943001 -26.722000 15.023500
						CHANNELS 3 Xrotation Yrotation Zrotation
						End Site
						{
							OFFSET 0 0 0
						}
					}
				}
			}
		}
	}
	JOINT RightUpLeg_virtual
	{
		OFFSET 0.000000 0.000000 0.000000
		CHANNELS 3 Xrotation Yrotation Zrotation
		JOINT RightUpLeg
		{
			OFFSET -18.735201 -5.666702 -4.541200
			CHANNELS 3 Xrotation Yrotation Zrotation
			JOINT RightLeg
			{
				OFFSET 0.018946 -31.938133 0.493100
				CHANNELS 3 Xrotation Yrotation Zrotation
				JOINT RightFoot
				{
					OFFSET -0.018946 -31.938126 -4.336299
					CHANNELS 3 Xrotation Yrotation Zrotation
					JOINT RightToeBase
					{
						OFFSET -0.943001 -26.722004 15.023500
						CHANNELS 3 Xrotation Yrotation Zrotation
						End Site
						{
							OFFSET 0 0 0
						}
					}
				}
			}
		}
	}
	JOINT Hips_virtual
	{
		OFFSET 0.000000 0.000000 0.000000
		CHANNELS 3 Xrotation Yrotation Zrotation
		JOINT Hips
		{
			OFFSET -0.000000 -0.000000 -0.000000
			CHANNELS 3 Xrotation Yrotation Zrotation
			JOINT Spine
			{
				OFFSET 0.000000 10.199997 -0.299500
				CHANNELS 3 Xrotation Yrotation Zrotation
				JOINT Spine1
				{
					OFFSET 0.000000 11.900002 -1.516600
					CHANNELS 3 Xrotation Yrotation Zrotation
					JOINT Spine2
					{
						OFFSET 0.000000 13.600006 -2.842500
						CHANNELS 3 Xrotation Yrotation Zrotation
						JOINT Neck_virtual
						{
							OFFSET 0.000000 0.000000 0.000000
							CHANNELS 3 Xrotation Yrotation Zrotation
							JOINT Neck
							{
								OFFSET 0.000000 9.624100 -2.890100
								CHANNELS 3 Xrotation Yrotation Zrotation
								JOINT Head
								{
									OFFSET 0.000000 14.068802 -1.351900
									CHANNELS 3 Xrotation Yrotation Zrotation
									End Site
									{
										OFFSET 0 0 0
									}
								}
							}
						}
						JOINT LeftShoulder_virtual
						{
							OFFSET 0.000000 0.000000 0.000000
							CHANNELS 3 Xrotation Yrotation Zrotation
							JOINT LeftShoulder
							{
								OFFSET 15.263000 10.923401 -0.547700
								CHANNELS 3 Xrotation Yrotation Zrotation
								JOINT LeftArm
								{
									OFFSET 25.438599 -2.830597 -13.032500
									CHANNELS 3 Xrotation Yrotation Zrotation
									JOINT LeftForeArm
									{
										OFFSET 29.960503 0.000000 0.000000
										CHANNELS 3 Xrotation Yrotation Zrotation
										JOINT LeftHand
										{
											OFFSET 27.849251 0.000000 0.000000
											CHANNELS 3 Xrotation Yrotation Zrotation
											End Site
											{
												OFFSET 0 0 0
											}
										}
									}
								}
							}
						}
						JOINT RightShoulder_virtual
						{
							OFFSET 0.000000 0.000000 0.000000
							CHANNELS 3 Xrotation Yrotation Zrotation
							JOINT RightShoulder
							{
								OFFSET -15.263000 10.923401 -0.547700
								CHANNELS 3 Xrotation Yrotation Zrotation
								JOINT RightArm
								{
									OFFSET -25.438599 -2.830597 -13.032500
									CHANNELS 3 Xrotation Yrotation Zrotation
									JOINT RightForeArm
									{
										OFFSET -29.960503 0.000000 0.000000
										CHANNELS 3 Xrotation Yrotation Zrotation
										JOINT RightHand
										{
											OFFSET -27.849251 0.000000 0.000000
											CHANNELS 3 Xrotation Yrotation Zrotation
											End Site
											{
												OFFSET 0 0 0
											}
										}
									}
								}
							}
						}
					}
				}
			}
		}
	}
}
MOTION
Frames: 9
Frame Time: 0.03333333
-0.514343 88.638779 8.770252 0.000000 0.000000 0.000000 -12.953370 -1.231295 -4.988203 -37.899968 18.769404 12.514430 46.050204 -8.884297 10.640152 1.430346 -7.967951 -1.494029 0.000000 0.000000 0.000000 -12.953370 -1.231295 -4.988203 -25.593294 -36.482366 -2.916195 39.447928 9.466412 -10.321732 -1.366628 7.582967 -5.705923 0.000000 0.000000 0.000000 -12.953370 -1.231295 -4.988203 0.000000 0.000000 0.000000 5.921211 -0.685945 2.622545 9.106088 -0.324703 -0.848842 0.000000 0.000000 0.000000 9.111604 -0.022998 -0.851798 6.174683 0.196268 0.359963 0.000000 0.000000 0.000000 9.111604 -0.022998 -0.851798 0.689292 3.725265 -11.385282 59.736882 -63.314665 -9.099230 0.000001 -20.467446 0.000022 0.000000 0.000000 0.000000 9.111604 -0.022998 -0.851798 1.381297 0.020057 11.778361 9.839219 40.445348 56.843232 -0.000006 26.830950 0.000009 0.000000 0.000000 0.000000 
-0.514945 88.642471 8.776268 0.000000 0.000000 0.000000 -12.937971 -1.190045 -4.987661 -37.906211 18.754506 12.494882 46.033303 -8.886011 10.639630 1.445253 -7.975865 -1.483567 0.000000 0.000000 0.000000 -12.937971 -1.190045 -4.987661 -25.587277 -36.513105 -2.925544 39.436293 9.467499 -10.321312 -1.381274 7.573366 -5.699325 0.000000 0.000000 0.000000 -12.937971 -1.190045 -4.987661 0.000000 0.000000 0.000000 5.917276 -0.686201 2.626380 9.101771 -0.326363 -0.858133 0.000000 0.000000 0.000000 9.107326 -0.025739 -0.860712 6.170240 0.193653 0.366023 0.000000 0.000000 0.000000 9.107326 -0.025739 -0.860712 0.689442 3.728124 -11.389587 59.635502 -63.287085 -9.181456 -0.000005 -20.479463 -0.000011 0.000000 0.000000 0.000000 9.107326 -0.025739 -0.860712 1.380292 0.014381 11.778445 9.844056 40.462536 56.845342 0.000010 26.845930 -0.000008 0.000000 0.000000 0.000000 
-0.515823 88.645767 8.782255 0.000000 0.000000 0.000000 -12.924208 -1.152820 -4.987849 -37.911942 18.740685 12.478066 46.019083 -8.887031 10.639178 1.457591 -7.983603 -1.473080 0.000000 0.000000 0.000000 -12.924208 -1.152820 -4.987849 -25.581271 -36.548284 -2.936066 39.425430 9.468574 -10.320777 -1.395306 7.570173 -5.695648 0.000000 0.000000 0.000000 -12.924208 -1.152820 -4.987849 0.000000 0.000000 0.000001 5.914068 -0.686757 2.629708 9.098277 -0.328489 -0.866142 0.000000 0.000000 0.000000 9.103877 -0.028798 -0.868353 6.165742 0.191221 0.371938 0.000000 0.000000 0.000000 9.103877 -0.028798 -0.868353 0.689444 3.729466 -11.390503 59.511349 -63.261922 -9.286493 0.000005 -20.488104 0.000040 0.000000 0.000000 0.000000 9.103877 -0.028798 -0.868353 1.379344 0.009006 11.778237 9.848085 40.481172 56.846674 -0.000010 26.857861 -0.000003 0.000000 0.000000 0.000000 
-0.517057 88.649063 8.788437 0.000000 0.000000 0.000000 -12.911129 -1.117067 -4.988366 -37.917505 18.727530 12.462852 46.006044 -8.887934 10.638761 1.468682 -7.991466 -1.462794 0.000000 0.000000 0.000000 -12.911129 -1.117067 -4.988366 -25.574158 -36.582247 -2.945076 39.414809 9.469557 -10.320242 -1.409343 7.566386 -5.692327 0.000000 0.000000 0.000000 -12.911129 -1.117067 -4.988366 -0.000001 0.000000 0.000000 5.911163 -0.687575 2.633056 9.095246 -0.331065 -0.873291 0.000000 0.000000 0.000000 9.100892 -0.032251 -0.875140 6.161284 0.188771 0.377854 0.000000 0.000000 0.000000 9.100892 -0.032251 -0.875140 0.689395 3.730280 -11.390356 59.372171 -63.239151 -9.406507 0.000010 -20.492454 0.000013 0.000000 0.000000 0.000000 9.100892 -0.032251 -0.875140 1.378496 0.004378 11.777020 9.850227 40.499552 56.848993 0.000016 26.868053 -0.000001 0.000000 0.000000 0.000000 
-0.518600 88.652359 8.794775 0.000000 0.000000 0.000000 -12.898892 -1.082924 -4.989179 -37.922484 18.715109 12.449156 45.993917 -8.888679 10.638354 1.478571 -7.999389 -1.452798 0.000000 0.000000 0.000000 -12.898892 -1.082924 -4.989179 -25.565845 -36.615497 -2.952905 39.404229 9.470530 -10.319675 -1.423259 7.562741 -5.689516 0.000000 0.000000 0.000000 -12.898892 -1.082924 -4.989179 0.000000 0.000000 0.000000 5.908634 -0.688684 2.636358 9.092752 -0.334137 -0.879477 0.000000 0.000000 0.000000 9.098462 -0.036119 -0.880976 6.156832 0.186375 0.383722 0.000000 0.000000 0.000000 9.098462 -0.036119 -0.880976 0.689260 3.730460 -11.388657 59.216278 -63.219370 -9.543449 0.000018 -20.491782 0.000007 0.000000 0.000000 0.000000 9.098462 -0.036119 -0.880976 1.377772 0.000541 11.774925 9.850700 40.518127 56.852114 0.000007 26.876193 0.000005 0.000000 0.000000 0.000000 
-0.520305 88.655533 8.801174 0.000000 0.000000 0.000000 -12.887675 -1.050432 -4.990326 -37.927183 18.703312 12.437003 45.983197 -8.889390 10.637981 1.487265 -8.007032 -1.443219 0.000000 0.000000 0.000000 -12.887675 -1.050432 -4.990326 -25.556855 -36.648715 -2.960207 39.394195 9.471521 -10.319114 -1.437100 7.559908 -5.687363 0.000000 0.000000 0.000000 -12.887675 -1.050432 -4.990326 0.000000 0.000000 0.000000 5.906518 -0.690117 2.639539 9.090878 -0.337760 -0.884631 0.000000 0.000000 0.000000 9.096652 -0.040435 -0.885785 6.152430 0.184111 0.389492 0.000000 0.000000 0.000000 9.096652 -0.040435 -0.885785 0.689038 3.729956 -11.384968 59.042368 -63.203115 -9.698985 -0.000019 -20.485443 -0.000005 0.000000 0.000000 0.000000 9.096652 -0.040435 -0.885785 1.377180 -0.002458 11.772128 9.849934 40.537408 56.855639 0.000003 26.882098 -0.000018 0.000000 0.000000 0.000000 
-0.522090 88.658615 8.807547 0.000000 0.000000 0.000000 -12.877536 -1.019582 -4.991739 -37.931097 18.692201 12.425866 45.973662 -8.889851 10.637635 1.494655 -8.014129 -1.433406 0.000000 0.000000 0.000000 -12.877536 -1.019582 -4.991739 -25.547216 -36.682487 -2.967417 39.384483 9.472625 -10.318506 -1.450704 7.558478 -5.686030 0.000000 0.000000 0.000000 -12.877536 -1.019582 -4.991739 0.000000 0.000000 0.000000 5.904897 -0.691911 2.642586 9.089676 -0.341986 -0.888690 0.000000 0.000000 0.000000 9.095517 -0.045238 -0.889513 6.148062 0.182070 0.395122 0.000000 0.000000 0.000000 9.095517 -0.045238 -0.889513 0.688682 3.728788 -11.378838 58.849340 -63.190861 -9.874629 0.000002 -20.472929 -0.000014 0.000000 0.000000 0.000000 9.095517 -0.045238 -0.889513 1.376743 -0.004524 11.768822 9.848472 40.558128 56.859037 -0.000001 26.885318 0.000012 0.000000 0.000000 0.000000 
-0.523781 88.661514 8.813824 0.000000 0.000000 0.000000 -12.868603 -0.990183 -4.993370 -37.934321 18.681442 12.415614 45.965551 -8.890382 10.637259 1.500913 -8.020219 -1.423825 0.000000 0.000000 0.000000 -12.868603 -0.990183 -4.993370 -25.537418 -36.717034 -2.975205 39.375552 9.473809 -10.317819 -1.464104 7.558825 -5.685477 0.000000 0.000000 0.000000 -12.868603 -0.990183 -4.993370 0.000000 0.000000 0.000000 5.903800 -0.694101 2.645427 9.089191 -0.346885 -0.891643 0.000000 0.000000 0.000000 9.095125 -0.050574 -0.892145 6.143754 0.180335 0.400582 0.000000 0.000000 0.000000 9.095125 -0.050574 -0.892145 0.688182 3.727047 -11.369932 58.636819 -63.182665 -10.071110 -0.000003 -20.454164 -0.000006 0.000000 0.000000 0.000000 9.095125 -0.050574 -0.892145 1.376487 -0.005541 11.765177 9.847045 40.580910 56.861755 -0.000010 26.885836 0.000027 0.000000 0.000000 0.000000 
-0.525229 88.664131 8.819891 0.000000 0.000000 0.000000 -12.860935 -0.961967 -4.995185 -37.937084 18.670785 12.405689 45.959523 -8.890676 10.636975 1.505836 -8.024976 -1.413922 0.000000 0.000000 0.000000 -12.860935 -0.961967 -4.995185 -25.527870 -36.752647 -2.983986 39.367919 9.475001 -10.317147 -1.477589 7.560981 -5.685674 0.000000 0.000000 0.000000 -12.860935 -0.961967 -4.995185 0.000000 0.000000 0.000000 5.903231 -0.696736 2.648116 9.089454 -0.352525 -0.893490 0.000000 0.000000 0.000000 9.095485 -0.056506 -0.893682 6.139468 0.178988 0.405837 0.000000 0.000000 0.000000 9.095485 -0.056506 -0.893682 0.687501 3.724915 -11.357972 58.404948 -63.178820 -10.288737 -0.000000 -20.429103 0.000009 0.000000 0.000000 0.000000 9.095485 -0.056506 -0.893682 1.376439 -0.005347 11.761290 9.846475 40.606325 56.863108 0.000008 26.883442 -0.000042 0.000000 0.000000 0.000000 
